<?xml version="1.0" encoding="utf-8"?>
<!-- Generator: Adobe Illustrator 16.0.3, SVG Export Plug-In . SVG Version: 6.00 Build 0)  -->
<!DOCTYPE svg PUBLIC "-//W3C//DTD SVG 1.1//EN" "http://www.w3.org/Graphics/SVG/1.1/DTD/svg11.dtd">
<svg version="1.1" id="Layer_1" xmlns="http://www.w3.org/2000/svg" xmlns:xlink="http://www.w3.org/1999/xlink" x="0px" y="0px"
	 width="202.537px" height="49.464px" viewBox="0 0 202.537 49.464" enable-background="new 0 0 202.537 49.464"
	 xml:space="preserve">
<g>
	<path fill="#FFFFFF" d="M59.368,43.403L53.487,4.566h5.356l3.261,23.638l3.085-23.638h5.182l-5.647,38.834h-5.356V43.403z"/>
	<path fill="#FFFFFF" d="M78.932,43.403h-5.473V4.566h5.473V43.403z"/>
	<path fill="#FFFFFF" d="M89.352,4.566c1.892,0,3.347,0.155,4.368,0.466c1.022,0.312,1.938,0.873,2.748,1.688
		c1.62,1.592,2.432,3.863,2.432,6.812v20.904c0,2.987-0.816,5.259-2.445,6.812c-0.815,0.815-1.736,1.377-2.766,1.688
		s-2.494,0.466-4.396,0.466h-5.765V4.566H89.352z M89.683,38.335c1.438,0,2.422-0.271,2.95-0.815
		c0.528-0.544,0.793-1.57,0.793-3.083V13.533c0-1.475-0.265-2.493-0.793-3.056c-0.528-0.562-1.513-0.845-2.95-0.845h-0.68v28.704
		H89.683z"/>
	<path fill="#FFFFFF" d="M116.658,4.566V9.69h-7.686v10.771h5.357v5.124h-5.357v12.692h8.151v5.123h-13.626V4.566H116.658z"/>
	<path fill="#FFFFFF" d="M135.93,33.503c0,1.164-0.021,2.116-0.059,2.853c-0.039,0.737-0.096,1.367-0.175,1.892
		c-0.077,0.524-0.194,0.972-0.35,1.34c-0.154,0.369-0.369,0.767-0.64,1.193c-0.66,1.011-1.564,1.798-2.708,2.358
		c-1.146,0.562-2.398,0.845-3.757,0.845c-1.359,0-2.611-0.282-3.757-0.845c-1.145-0.561-2.047-1.348-2.707-2.358
		c-0.271-0.426-0.486-0.824-0.642-1.193c-0.154-0.368-0.282-0.815-0.377-1.34c-0.098-0.522-0.156-1.154-0.176-1.892
		c-0.019-0.736-0.028-1.688-0.028-2.853V14.406c0-1.165,0.01-2.116,0.028-2.853s0.078-1.368,0.176-1.892
		c0.095-0.524,0.221-0.97,0.377-1.339c0.155-0.369,0.37-0.766,0.642-1.193c0.66-0.97,1.563-1.736,2.709-2.3
		c1.145-0.562,2.397-0.844,3.757-0.844c1.357,0,2.611,0.283,3.756,0.844c1.144,0.564,2.047,1.331,2.707,2.3
		c0.271,0.428,0.485,0.826,0.64,1.193c0.153,0.37,0.272,0.815,0.35,1.339c0.079,0.524,0.136,1.156,0.175,1.892
		c0.038,0.737,0.059,1.688,0.059,2.853V33.503L135.93,33.503z M130.456,12.24c0-1.121-0.171-1.923-0.511-2.407
		c-0.341-0.484-0.908-0.726-1.701-0.726c-0.758,0-1.313,0.242-1.674,0.726c-0.358,0.484-0.539,1.288-0.539,2.407v23.487
		c0,1.122,0.171,1.924,0.511,2.407c0.341,0.486,0.908,0.725,1.702,0.725c0.757,0,1.314-0.241,1.671-0.725
		c0.359-0.483,0.541-1.285,0.541-2.407V12.24z"/>
	<path fill="#FFFFFF" d="M153.629,4.566V9.69h-7.686v10.771h5.357v5.124h-5.357v17.815h-5.473V4.566H153.629z"/>
	<path fill="#FFFFFF" d="M155.085,4.566h5.88l2.999,14.323l2.998-14.323h5.707l-6.056,22.708v16.127h-5.473V27.274L155.085,4.566z"
		/>
</g>
<g>
	<g>
		<path fill="#FFFFFF" d="M24.251-0.043c-13.266,0-24.02,10.754-24.02,24.019c0,13.268,10.754,24.021,24.02,24.021
			c13.265,0,24.019-10.754,24.019-24.021C48.271,10.711,37.517-0.043,24.251-0.043z M24.251,42.565
			c-10.25,0-18.588-8.34-18.588-18.589S14.001,5.388,24.251,5.388c10.249,0,18.587,8.339,18.587,18.588S34.5,42.565,24.251,42.565z"
			/>
	</g>
	<g>
		<path fill="#FFFFFF" d="M17.899,10.006c-4.94,2.41-9.727,9.464-9.093,16.902c0.209,2.449,0.958-0.018,0.958-0.018
			c1.203-5.655,7.09-11.342,10.119-12.819c1.123-0.548,1.59-1.902,1.042-3.024C20.378,9.924,19.023,9.457,17.899,10.006z"/>
	</g>
</g>
</svg>
